<?xml version="1.0" encoding="utf-8"?>
<!-- Generator: Adobe Illustrator 16.0.0, SVG Export Plug-In . SVG Version: 6.00 Build 0)  -->
<!DOCTYPE svg PUBLIC "-//W3C//DTD SVG 1.1//EN" "http://www.w3.org/Graphics/SVG/1.1/DTD/svg11.dtd">
<svg version="1.1" id="Layer_1" xmlns="http://www.w3.org/2000/svg" xmlns:xlink="http://www.w3.org/1999/xlink" x="0px" y="0px"
	 width="110px" height="110px" viewBox="0 0 110 110" enable-background="new 0 0 110 110" xml:space="preserve">
<path fill-rule="evenodd" clip-rule="evenodd" fill="#D85D3F" d="M0,55C0,24.62,24.62,0,55,0s55,24.62,55,55s-24.62,55-55,55
	S0,85.38,0,55z"/>
<polygon fill-rule="evenodd" clip-rule="evenodd" fill="#FFFFFF" points="45.4,44.33 25,53.83 25,59.38 45.4,68.58 45.4,63.471 
	30.66,56.609 45.4,49.74 "/>
<polygon fill-rule="evenodd" clip-rule="evenodd" fill="#FFFFFF" points="46.91,72.5 51.6,72.5 63.09,37.5 58.39,37.5 "/>
<polygon fill-rule="evenodd" clip-rule="evenodd" fill="#FFFFFF" points="64.6,68.58 85,59.38 85,53.83 64.6,44.33 64.6,49.74 
	79.34,56.609 64.6,63.471 "/>
<path fill-rule="evenodd" clip-rule="evenodd" fill="#BB442A" d="M72.99,106.99c15.17-5.25,27.32-16.94,33.189-31.811L84,53v6l-19,9
	l-9-9l-4,13h-5l-2-4l-20-9L72.99,106.99z"/>
</svg>
